PathFileType	4	(X/Y/Z)	D:\Share\Shared_Data\Ergonomics\Sit To Stand Pertubation\S2\Perturbed.trc
DataRate	CameraRate	NumFrames	NumMarkers	Units	OrigDataRate	OrigDataStartFrame	OrigNumFrames	
100	100	11	18	m	100	14429	221
Frame#	Time	R_Toe			R_ASIS			R_Pelvis			V_Sacral			L_Pelvis			L_ASIS			Clavical			R_Acromium			L_Acromium			Sternum			Torso			R_Thigh_Med			R_Thigh_Lat			R_Thigh			R_Shank_Med			R_Shank_Lat			R_Shank			R_Heel			
		X1	Y1	Z1	X2	Y2	Z2	X3	Y3	Z3	X4	Y4	Z4	X5	Y5	Z5	X6	Y6	Z6	X7	Y7	Z7	X8	Y8	Z8	X9	Y9	Z9	X10	Y10	Z10	X11	Y11	Z11	X12	Y12	Z12	X13	Y13	Z13	X14	Y14	Z14	X15	Y15	Z15	X16	Y16	Z16	X17	Y17	Z17	X18	Y18	Z18	

14429	144.28	0.43430896	0.065029488	0.14790637	0.36307086	1.0188361	0.14012764	0.28927243	1.0305691	0.18518454	0.14239125	1.0470933	0.030964542	0.23612213	1.0415314	-0.15283179	0.33273178	1.0386886	-0.13159543	0.45050574	1.4351984	0.0057466092	0.36906546	1.4787584	0.2153862	0.34602344	1.4873771	-0.17607109	0.4671669	1.2719072	0.00078494602	0.44937323	1.3974816	-0.10957921	0.35501871	0.49792514	0.099157974	0.33569788	0.52112451	0.1904859	0.39724014	0.69141614	0.17359204	0.30136752	0.10917751	0.10593995	0.27571616	0.1000682	0.19586919	0.30439502	0.37254379	0.21698732	0.19741696	0.058771713	0.14365495
14430	144.29	0.43429367	0.06503566	0.14790356	0.36636469	1.0200906	0.14054327	0.29234698	1.0310397	0.18549138	0.14551518	1.046855	0.031086718	0.23921919	1.0413385	-0.15248059	0.33580533	1.039356	-0.13140945	0.44888974	1.4377931	0.0058601336	0.36705118	1.4803667	0.215673	0.34321414	1.4886615	-0.17579381	0.467383	1.2745862	0.00071345085	0.44792139	1.4000992	-0.10949459	0.35359061	0.49790466	0.098595993	0.33427094	0.52119226	0.18961588	0.39802628	0.69072339	0.17343918	0.30140161	0.10915004	0.10585841	0.27565555	0.1000863	0.19579015	0.30303476	0.37274472	0.21637878	0.19740863	0.058789509	0.14364268
14431	144.3	0.4342731	0.065044884	0.14790463	0.36964529	1.0212526	0.14098415	0.29538824	1.0314253	0.18582761	0.14861131	1.0465305	0.031215208	0.24229575	1.0411089	-0.15214677	0.33886154	1.039946	-0.13118904	0.44728284	1.4402183	0.0059923859	0.36503555	1.4818289	0.21597099	0.34047723	1.4898018	-0.17550023	0.46756326	1.277114	0.00066372347	0.44650058	1.402542	-0.10939149	0.35211469	0.49784183	0.098076004	0.33277866	0.52123712	0.18877917	0.39877182	0.68996008	0.17322533	0.30142328	0.10911731	0.10577966	0.2755864	0.10010023	0.19572163	0.30160757	0.37293906	0.21579399	0.19739711	0.058800621	0.14362991
14432	144.31	0.43424762	0.065057625	0.14791013	0.37293866	1.0223131	0.14144092	0.29840714	1.0317189	0.186189	0.15167964	1.0461205	0.031353357	0.24534331	1.0408458	-0.15182877	0.34189911	1.0404607	-0.13094131	0.4456889	1.4424703	0.00614291	0.36301599	1.4831451	0.21628035	0.33782239	1.4908029	-0.17519353	0.46772665	1.2794886	0.00063783258	0.44511899	1.4048091	-0.10926976	0.35060211	0.49773035	0.097610229	0.33123938	0.52125677	0.18798955	0.3994809	0.68912152	0.17297194	0.30142966	0.10908062	0.10570841	0.27550876	0.10010894	0.19566602	0.3001301	0.37312454	0.21524513	0.19738519	0.058787506	0.14361046
14433	144.32	0.43421753	0.065074219	0.14791925	0.37626559	1.0232639	0.1419028	0.30141263	1.0319158	0.18657196	0.15471991	1.0456241	0.03150485	0.24835101	1.0405465	-0.15152597	0.3449136	1.0408971	-0.13067572	0.44411368	1.4445415	0.0063111596	0.36099347	1.4843119	0.21659979	0.33525784	1.4916626	-0.17487927	0.46788583	1.2817037	0.00063873863	0.44378351	1.4068965	-0.10912956	0.34906284	0.49756622	0.097202003	0.32967874	0.52125104	0.1872556	0.40016425	0.68821118	0.17270198	0.30142114	0.10904137	0.10564779	0.27542395	0.10011178	0.19562457	0.29862433	0.37329819	0.2147413	0.19737407	0.058740448	0.14358133
14434	144.33	0.43418338	0.065094627	0.14793016	0.3796344	1.0240973	0.14235815	0.30441168	1.0320146	0.18697366	0.15773082	1.0450375	0.031673651	0.251306	1.0402015	-0.1512381	0.34789517	1.0412489	-0.13040393	0.44256516	1.4464222	0.0064963727	0.3589733	1.485323	0.21692694	0.33279135	1.4923734	-0.17456351	0.46804715	1.283749	0.00066872901	0.44250018	1.4087953	-0.108972	0.34750562	0.49734973	0.096846039	0.32812711	0.52122156	0.18658206	0.40083505	0.68723938	0.1724357	0.30139923	0.10900054	0.10559923	0.27533405	0.10010817	0.19559793	0.2971156	0.37345663	0.21428903	0.19736221	0.058664494	0.14354561
14435	144.34	0.43414545	0.065118385	0.14794075	0.3830321	1.024807	0.14279483	0.30740823	1.0320159	0.18739142	0.16070901	1.0443535	0.031863939	0.25419464	1.0397981	-0.15096352	0.35082715	1.0415067	-0.13013895	0.44105228	1.4481025	0.0066965628	0.35696487	1.4861683	0.21725917	0.33043118	1.4929253	-0.1742514	0.46821124	1.2856135	0.00072804302	0.44127368	1.4104945	-0.10879996	0.34593799	0.49708664	0.096530167	0.32661551	0.52117242	0.18597121	0.40150558	0.68622272	0.17218637	0.3013663	0.1089588	0.10556316	0.27524161	0.10009748	0.19558627	0.29562952	0.37359641	0.21389343	0.19734668	0.058572811	0.14350955
14436	144.35	0.43410416	0.065144638	0.14794945	0.38641821	1.0253865	0.14320091	0.31040268	1.0319233	0.18782265	0.1636488	1.0435613	0.032080612	0.25700354	1.0393241	-0.15069887	0.35368823	1.0416614	-0.12989201	0.43958478	1.4495742	0.0069078736	0.35498218	1.486838	0.21759264	0.32818695	1.4933082	-0.17394627	0.46837512	1.2872871	0.00081451213	0.44010739	1.4119825	-0.10861849	0.34436664	0.49678809	0.096239182	0.32517212	0.52110895	0.1854245	0.40218436	0.68518188	0.17195862	0.30132458	0.10891685	0.10553951	0.27514856	0.10007891	0.19558983	0.29418954	0.37371487	0.21355933	0.19732555	0.058476597	0.14347861
14437	144.36	0.43406027	0.065172188	0.14795573	0.38973703	1.0258315	0.14356677	0.31339145	1.0317426	0.18826532	0.16654282	1.0426483	0.032329315	0.25972107	1.03877	-0.15043993	0.35645831	1.0417073	-0.12966988	0.43817236	1.4508317	0.0071252375	0.35304266	1.4873223	0.21792171	0.32606866	1.4935157	-0.17365004	0.46853455	1.2887607	0.00092406416	0.43900235	1.4132496	-0.1084337	0.34280154	0.49646957	0.095961136	0.32381915	0.52103748	0.18494319	0.40287616	0.68414008	0.17174937	0.30127606	0.10887517	0.10552804	0.27505615	0.10005174	0.19560811	0.29281467	0.37381052	0.21329221	0.19729842	0.058381729	0.14345581
14438	144.37	0.43401474	0.065199799	0.14796017	0.39294379	1.0261448	0.14388753	0.31636768	1.0314814	0.18871785	0.16938338	1.0416017	0.032615681	0.26233878	1.0381294	-0.15018237	0.3591221	1.0416427	-0.12947453	0.43682346	1.451874	0.0073433714	0.35116641	1.487616	0.21823912	0.32408459	1.4935455	-0.17336432	0.46868671	1.2900288	0.0010513115	0.43795715	1.4142903	-0.10825114	0.34125931	0.49614844	0.095693199	0.32257095	0.52096259	0.18452806	0.40358298	0.68312219	0.17154826	0.30122183	0.10883399	0.10552824	0.27496432	0.1000157	0.19563942	0.2915188	0.37388336	0.21309734	0.19726616	0.05828978	0.14344217
14439	144.38	0.4339689	0.065226311	0.14796384	0.39601859	1.0263352	0.14416417	0.31932214	1.0311493	0.18917882	0.17216444	1.0404113	0.032944691	0.26485226	1.037399	-0.1499221	0.36167087	1.0414698	-0.12930406	0.43554367	1.4527057	0.0075571713	0.34937393	1.4877192	0.21853761	0.32223947	1.4933987	-0.17309148	0.46883047	1.2910913	0.0011901854	0.43696857	1.4151047	-0.10807493	0.33976108	0.49583917	0.09544268	0.32143436	0.52088623	0.18417953	0.4043064	0.68215277	0.17133745	0.30116217	0.10879339	0.10553947	0.27487204	0.099970947	0.1956806	0.29031119	0.37393494	0.21297931	0.19723015	0.058200447	0.14343745
